<svg xmlns="http://www.w3.org/2000/svg" width="634.927978515625" height="628.7841186523438" viewBox="-218.03390502929688 -235.84503173828125 634.927978515625 628.7841186523438"><title>Neo4j Graph Visualization</title><desc>Created using Neo4j (http://www.neo4j.com/)</desc><g class="layer relationships"><g class="relationship" transform="translate(-58.15066761114009 117.81308765242746) rotate(340.5682736018939)"><path class="outline" fill="#A5ABB6" stroke="none" d="M 25 0.5 L 62.05504208013983 0.5 L 62.05504208013983 -0.5 L 25 -0.5 Z M 96.50035458013983 0.5 L 133.55539666027965 0.5 L 133.55539666027965 3.5 L 140.55539666027965 0 L 133.55539666027965 -3.5 L 133.55539666027965 -0.5 L 96.50035458013983 -0.5 Z"/><text text-anchor="middle" pointer-events="none" font-size="8px" fill="#000000" x="79.27769833013983" y="3" font-family="sans-serif">ORIGIN</text></g><g class="relationship" transform="translate(-58.15066761114009 117.81308765242746) rotate(203.00533729501552)"><path class="outline" fill="#A5ABB6" stroke="none" d="M 25 0.5 L 38.00224245347408 0.5 L 38.00224245347408 -0.5 L 25 -0.5 Z M 97.18974245347408 0.5 L 110.19198490694816 0.5 L 110.19198490694816 3.5 L 117.19198490694816 0 L 110.19198490694816 -3.5 L 110.19198490694816 -0.5 L 97.18974245347408 -0.5 Z"/><text text-anchor="middle" pointer-events="none" font-size="8px" fill="#000000" x="67.59599245347408" y="3" transform="rotate(180 67.59599245347408 0)" font-family="sans-serif">DESTINATION</text></g><g class="relationship" transform="translate(208.66936210455242 122.65297014915018) rotate(208.42598652928552)"><path class="outline" fill="#A5ABB6" stroke="none" d="M 25 0.5 L 42.212742151499 0.5 L 42.212742151499 -0.5 L 25 -0.5 Z M 76.658054651499 0.5 L 93.870796802998 0.5 L 93.870796802998 3.5 L 100.870796802998 0 L 93.870796802998 -3.5 L 93.870796802998 -0.5 L 76.658054651499 -0.5 Z"/><text text-anchor="middle" pointer-events="none" font-size="8px" fill="#000000" x="59.435398401499" y="3" transform="rotate(180 59.435398401499 0)" font-family="sans-serif">ORIGIN</text></g><g class="relationship" transform="translate(208.66936210455242 122.65297014915018) rotate(389.0686225492761)"><path class="outline" fill="#A5ABB6" stroke="none" d="M 25 0.5 L 46.74081275088929 0.5 L 46.74081275088929 -0.5 L 25 -0.5 Z M 105.92831275088929 0.5 L 127.66912550177858 0.5 L 127.66912550177858 3.5 L 134.66912550177858 0 L 127.66912550177858 -3.5 L 127.66912550177858 -0.5 L 105.92831275088929 -0.5 Z"/><text text-anchor="middle" pointer-events="none" font-size="8px" fill="#000000" x="76.33456275088929" y="3" font-family="sans-serif">DESTINATION</text></g><g class="relationship" transform="translate(250.4817060664865 8.479416257126152) rotate(520.4164204041748)"><path class="outline" fill="#A5ABB6" stroke="none" d="M 25 0.5 L 60.21279549017484 0.5 L 60.21279549017484 -0.5 L 25 -0.5 Z M 94.65810799017484 0.5 L 129.87090348034968 0.5 L 129.87090348034968 3.5 L 136.87090348034968 0 L 129.87090348034968 -3.5 L 129.87090348034968 -0.5 L 94.65810799017484 -0.5 Z"/><text text-anchor="middle" pointer-events="none" font-size="8px" fill="#000000" x="77.43545174017484" y="3" transform="rotate(180 77.43545174017484 0)" font-family="sans-serif">ORIGIN</text></g><g class="relationship" transform="translate(250.4817060664865 8.479416257126152) rotate(338.97218625230494)"><path class="outline" fill="#A5ABB6" stroke="none" d="M 25 0.5 L 40.51423631574188 0.5 L 40.51423631574188 -0.5 L 25 -0.5 Z M 99.70173631574188 0.5 L 115.21597263148377 0.5 L 115.21597263148377 3.5 L 122.21597263148377 0 L 115.21597263148377 -3.5 L 115.21597263148377 -0.5 L 99.70173631574188 -0.5 Z"/><text text-anchor="middle" pointer-events="none" font-size="8px" fill="#000000" x="70.10798631574188" y="3" font-family="sans-serif">DESTINATION</text></g><g class="relationship" transform="translate(-30.15440955144843 55.32103380340079) rotate(363.31188295752037)"><path class="outline" fill="#A5ABB6" stroke="none" d="M 25 0.5 L 43.448954078261664 0.5 L 43.448954078261664 -0.5 L 25 -0.5 Z M 77.89426657826166 0.5 L 96.34322065652333 0.5 L 96.34322065652333 3.5 L 103.34322065652333 0 L 96.34322065652333 -3.5 L 96.34322065652333 -0.5 L 77.89426657826166 -0.5 Z"/><text text-anchor="middle" pointer-events="none" font-size="8px" fill="#000000" x="60.671610328261664" y="3" font-family="sans-serif">ORIGIN</text></g><g class="relationship" transform="translate(-30.15440955144843 55.32103380340079) rotate(537.5056877137624)"><path class="outline" fill="#A5ABB6" stroke="none" d="M 25 0.5 L 46.421333940515424 0.5 L 46.421333940515424 -0.5 L 25 -0.5 Z M 105.60883394051542 0.5 L 127.03016788103085 0.5 L 127.03016788103085 3.5 L 134.03016788103085 0 L 127.03016788103085 -3.5 L 127.03016788103085 -0.5 L 105.60883394051542 -0.5 Z"/><text text-anchor="middle" pointer-events="none" font-size="8px" fill="#000000" x="76.01508394051542" y="3" transform="rotate(180 76.01508394051542 0)" font-family="sans-serif">DESTINATION</text></g><g class="relationship" transform="translate(90.56293073726641 226.99531976037792) rotate(272.58347809625695)"><path class="outline" fill="#A5ABB6" stroke="none" d="M 25 0.5 L 61.490784572153586 0.5 L 61.490784572153586 -0.5 L 25 -0.5 Z M 95.93609707215359 0.5 L 132.42688164430717 0.5 L 132.42688164430717 3.5 L 139.42688164430717 0 L 132.42688164430717 -3.5 L 132.42688164430717 -0.5 L 95.93609707215359 -0.5 Z"/><text text-anchor="middle" pointer-events="none" font-size="8px" fill="#000000" x="78.71344082215359" y="3" font-family="sans-serif">ORIGIN</text></g><g class="relationship" transform="translate(90.56293073726641 226.99531976037792) rotate(474.84895131920734)"><path class="outline" fill="#A5ABB6" stroke="none" d="M 25 0.5 L 36.749937489107026 0.5 L 36.749937489107026 -0.5 L 25 -0.5 Z M 95.93743748910703 0.5 L 107.68737497821405 0.5 L 107.68737497821405 3.5 L 114.68737497821405 0 L 107.68737497821405 -3.5 L 107.68737497821405 -0.5 L 95.93743748910703 -0.5 Z"/><text text-anchor="middle" pointer-events="none" font-size="8px" fill="#000000" x="66.34368748910703" y="3" transform="rotate(180 66.34368748910703 0)" font-family="sans-serif">DESTINATION</text></g><g class="relationship" transform="translate(160.9781578803391 -116.43334826296298) rotate(469.37392549067505)"><path class="outline" fill="#A5ABB6" stroke="none" d="M 25 0.5 L 74.23913044125662 0.5 L 74.23913044125662 -0.5 L 25 -0.5 Z M 108.68444294125662 0.5 L 157.92357338251324 0.5 L 157.92357338251324 3.5 L 164.92357338251324 0 L 157.92357338251324 -3.5 L 157.92357338251324 -0.5 L 108.68444294125662 -0.5 Z"/><text text-anchor="middle" pointer-events="none" font-size="8px" fill="#000000" x="91.46178669125662" y="3" transform="rotate(180 91.46178669125662 0)" font-family="sans-serif">ORIGIN</text></g><g class="relationship" transform="translate(160.9781578803391 -116.43334826296298) rotate(236.07190410316912)"><path class="outline" fill="#A5ABB6" stroke="none" d="M 25 0.5 L 26.646086884440678 0.5 L 26.646086884440678 -0.5 L 25 -0.5 Z M 75.31796188444068 0.5 L 76.96404876888136 0.5 L 76.96404876888136 3.5 L 83.96404876888136 0 L 76.96404876888136 -3.5 L 76.96404876888136 -0.5 L 75.31796188444068 -0.5 Z"/><text text-anchor="middle" pointer-events="none" font-size="8px" fill="#000000" x="50.98202438444068" y="3" transform="rotate(180 50.98202438444068 0)" font-family="sans-serif">DESTINA…</text></g><g class="relationship" transform="translate(262.68578369652613 148.23096885471836) rotate(207.43211636016508)"><path class="outline" fill="#A5ABB6" stroke="none" d="M 25 0.5 L 72.0664665418362 0.5 L 72.0664665418362 -0.5 L 25 -0.5 Z M 106.5117790418362 0.5 L 153.5782455836724 0.5 L 153.5782455836724 3.5 L 160.5782455836724 0 L 153.5782455836724 -3.5 L 153.5782455836724 -0.5 L 106.5117790418362 -0.5 Z"/><text text-anchor="middle" pointer-events="none" font-size="8px" fill="#000000" x="89.2891227918362" y="3" transform="rotate(180 89.2891227918362 0)" font-family="sans-serif">ORIGIN</text></g><g class="relationship" transform="translate(262.68578369652613 148.23096885471836) rotate(391.29455849842174)"><path class="outline" fill="#A5ABB6" stroke="none" d="M 25 0.5 L 27.773197269075 0.5 L 27.773197269075 -0.5 L 25 -0.5 Z M 65.331791019075 0.5 L 68.10498828815 0.5 L 68.10498828815 3.5 L 75.10498828815 0 L 68.10498828815 -3.5 L 68.10498828815 -0.5 L 65.331791019075 -0.5 Z"/><text text-anchor="middle" pointer-events="none" font-size="8px" fill="#000000" x="46.552494144075" y="3" font-family="sans-serif">DESTI…</text></g><g class="relationship" transform="translate(263.93071503935397 88.33002679922173) rotate(188.76731933007716)"><path class="outline" fill="#A5ABB6" stroke="none" d="M 25 0.5 L 63.23649374821932 0.5 L 63.23649374821932 -0.5 L 25 -0.5 Z M 97.68180624821932 0.5 L 135.91829999643863 0.5 L 135.91829999643863 3.5 L 142.91829999643863 0 L 135.91829999643863 -3.5 L 135.91829999643863 -0.5 L 97.68180624821932 -0.5 Z"/><text text-anchor="middle" pointer-events="none" font-size="8px" fill="#000000" x="80.45914999821932" y="3" transform="rotate(180 80.45914999821932 0)" font-family="sans-serif">ORIGIN</text></g><g class="relationship" transform="translate(263.93071503935397 88.33002679922173) rotate(413.0086723052781)"><path class="outline" fill="#A5ABB6" stroke="none" d="M 25 0.5 L 36.954796076387936 0.5 L 36.954796076387936 -0.5 L 25 -0.5 Z M 96.14229607638794 0.5 L 108.09709215277587 0.5 L 108.09709215277587 3.5 L 115.09709215277587 0 L 108.09709215277587 -3.5 L 108.09709215277587 -0.5 L 96.14229607638794 -0.5 Z"/><text text-anchor="middle" pointer-events="none" font-size="8px" fill="#000000" x="66.54854607638794" y="3" font-family="sans-serif">DESTINATION</text></g><g class="relationship" transform="translate(-88.87725949969946 66.41075311760196) rotate(358.8731925926161)"><path class="outline" fill="#A5ABB6" stroke="none" d="M 25 0.5 L 72.72127338555804 0.5 L 72.72127338555804 -0.5 L 25 -0.5 Z M 107.16658588555804 0.5 L 154.88785927111607 0.5 L 154.88785927111607 3.5 L 161.88785927111607 0 L 154.88785927111607 -3.5 L 154.88785927111607 -0.5 L 107.16658588555804 -0.5 Z"/><text text-anchor="middle" pointer-events="none" font-size="8px" fill="#000000" x="89.94392963555804" y="3" font-family="sans-serif">ORIGIN</text></g><g class="relationship" transform="translate(-88.87725949969946 66.41075311760196) rotate(182.3833737149714)"><path class="outline" fill="#A5ABB6" stroke="none" d="M 25 0.5 L 27.842383543112376 0.5 L 27.842383543112376 -0.5 L 25 -0.5 Z M 65.40097729311238 0.5 L 68.24336083622475 0.5 L 68.24336083622475 3.5 L 75.24336083622475 0 L 68.24336083622475 -3.5 L 68.24336083622475 -0.5 L 65.40097729311238 -0.5 Z"/><text text-anchor="middle" pointer-events="none" font-size="8px" fill="#000000" x="46.621680418112376" y="3" transform="rotate(180 46.621680418112376 0)" font-family="sans-serif">DESTI…</text></g><g class="relationship" transform="translate(134.7502260982835 -58.93539889586801) rotate(466.81775231419584)"><path class="outline" fill="#A5ABB6" stroke="none" d="M 25 0.5 L 42.83102040834261 0.5 L 42.83102040834261 -0.5 L 25 -0.5 Z M 77.27633290834261 0.5 L 95.10735331668522 0.5 L 95.10735331668522 3.5 L 102.10735331668522 0 L 95.10735331668522 -3.5 L 95.10735331668522 -0.5 L 77.27633290834261 -0.5 Z"/><text text-anchor="middle" pointer-events="none" font-size="8px" fill="#000000" x="60.05367665834261" y="3" transform="rotate(180 60.05367665834261 0)" font-family="sans-serif">ORIGIN</text></g><g class="relationship" transform="translate(134.7502260982835 -58.93539889586801) rotate(256.83720609060987)"><path class="outline" fill="#A5ABB6" stroke="none" d="M 25 0.5 L 42.85651061461422 0.5 L 42.85651061461422 -0.5 L 25 -0.5 Z M 102.04401061461422 0.5 L 119.90052122922845 0.5 L 119.90052122922845 3.5 L 126.90052122922845 0 L 119.90052122922845 -3.5 L 119.90052122922845 -0.5 L 102.04401061461422 -0.5 Z"/><text text-anchor="middle" pointer-events="none" font-size="8px" fill="#000000" x="72.45026061461422" y="3" transform="rotate(180 72.45026061461422 0)" font-family="sans-serif">DESTINATION</text></g><g class="relationship" transform="translate(-67.1959636656436 8.138841053507305) rotate(378.291189312078)"><path class="outline" fill="#A5ABB6" stroke="none" d="M 25 0.5 L 66.25732768748836 0.5 L 66.25732768748836 -0.5 L 25 -0.5 Z M 100.70264018748836 0.5 L 141.9599678749767 0.5 L 141.9599678749767 3.5 L 148.9599678749767 0 L 141.9599678749767 -3.5 L 141.9599678749767 -0.5 L 100.70264018748836 -0.5 Z"/><text text-anchor="middle" pointer-events="none" font-size="8px" fill="#000000" x="83.47998393748836" y="3" font-family="sans-serif">ORIGIN</text></g><g class="relationship" transform="translate(-67.1959636656436 8.138841053507305) rotate(516.0559608938786)"><path class="outline" fill="#A5ABB6" stroke="none" d="M 25 0.5 L 33.5614110953464 0.5 L 33.5614110953464 -0.5 L 25 -0.5 Z M 92.7489110953464 0.5 L 101.3103221906928 0.5 L 101.3103221906928 3.5 L 108.3103221906928 0 L 101.3103221906928 -3.5 L 101.3103221906928 -0.5 L 92.7489110953464 -0.5 Z"/><text text-anchor="middle" pointer-events="none" font-size="8px" fill="#000000" x="63.1551610953464" y="3" transform="rotate(180 63.1551610953464 0)" font-family="sans-serif">DESTINATION</text></g><g class="relationship" transform="translate(194.09942743004072 -66.66152522679448) rotate(486.6074796481437)"><path class="outline" fill="#A5ABB6" stroke="none" d="M 25 0.5 L 59.874513588349444 0.5 L 59.874513588349444 -0.5 L 25 -0.5 Z M 94.31982608834944 0.5 L 129.1943396766989 0.5 L 129.1943396766989 3.5 L 136.1943396766989 0 L 129.1943396766989 -3.5 L 129.1943396766989 -0.5 L 94.31982608834944 -0.5 Z"/><text text-anchor="middle" pointer-events="none" font-size="8px" fill="#000000" x="77.09716983834944" y="3" transform="rotate(180 77.09716983834944 0)" font-family="sans-serif">ORIGIN</text></g><g class="relationship" transform="translate(194.09942743004072 -66.66152522679448) rotate(236.17316876552246)"><path class="outline" fill="#A5ABB6" stroke="none" d="M 25 0.5 L 51.28056196685411 0.5 L 51.28056196685411 -0.5 L 25 -0.5 Z M 110.46806196685411 0.5 L 136.74862393370822 0.5 L 136.74862393370822 3.5 L 143.74862393370822 0 L 136.74862393370822 -3.5 L 136.74862393370822 -0.5 L 110.46806196685411 -0.5 Z"/><text text-anchor="middle" pointer-events="none" font-size="8px" fill="#000000" x="80.87431196685411" y="3" transform="rotate(180 80.87431196685411 0)" font-family="sans-serif">DESTINATION</text></g><g class="relationship" transform="translate(32.0545911827126 214.16532467268684) rotate(293.52428498352356)"><path class="outline" fill="#A5ABB6" stroke="none" d="M 25 0.5 L 61.85518981659493 0.5 L 61.85518981659493 -0.5 L 25 -0.5 Z M 96.30050231659493 0.5 L 133.15569213318986 0.5 L 133.15569213318986 3.5 L 140.15569213318986 0 L 133.15569213318986 -3.5 L 133.15569213318986 -0.5 L 96.30050231659493 -0.5 Z"/><text text-anchor="middle" pointer-events="none" font-size="8px" fill="#000000" x="79.07784606659493" y="3" font-family="sans-serif">ORIGIN</text></g><g class="relationship" transform="translate(32.0545911827126 214.16532467268684) rotate(450.07886680257405)"><path class="outline" fill="#A5ABB6" stroke="none" d="M 25 0.5 L 36.69878759707858 0.5 L 36.69878759707858 -0.5 L 25 -0.5 Z M 95.88628759707858 0.5 L 107.58507519415716 0.5 L 107.58507519415716 3.5 L 114.58507519415716 0 L 107.58507519415716 -3.5 L 107.58507519415716 -0.5 L 95.88628759707858 -0.5 Z"/><text text-anchor="middle" pointer-events="none" font-size="8px" fill="#000000" x="66.29253759707858" y="3" transform="rotate(180 66.29253759707858 0)" font-family="sans-serif">DESTINATION</text></g><g class="relationship" transform="translate(101.41735085673733 -108.61396882202105) rotate(451.15107759234246)"><path class="outline" fill="#A5ABB6" stroke="none" d="M 25 0.5 L 64.96940078802096 0.5 L 64.96940078802096 -0.5 L 25 -0.5 Z M 99.41471328802096 0.5 L 139.38411407604193 0.5 L 139.38411407604193 3.5 L 146.38411407604193 0 L 139.38411407604193 -3.5 L 139.38411407604193 -0.5 L 99.41471328802096 -0.5 Z"/><text text-anchor="middle" pointer-events="none" font-size="8px" fill="#000000" x="82.19205703802096" y="3" transform="rotate(180 82.19205703802096 0)" font-family="sans-serif">ORIGIN</text></g><g class="relationship" transform="translate(101.41735085673733 -108.61396882202105) rotate(269.26645421237015)"><path class="outline" fill="#A5ABB6" stroke="none" d="M 25 0.5 L 26.840261748960685 0.5 L 26.840261748960685 -0.5 L 25 -0.5 Z M 64.39885549896069 0.5 L 66.23911724792137 0.5 L 66.23911724792137 3.5 L 73.23911724792137 0 L 66.23911724792137 -3.5 L 66.23911724792137 -0.5 L 64.39885549896069 -0.5 Z"/><text text-anchor="middle" pointer-events="none" font-size="8px" fill="#000000" x="45.619558623960685" y="3" transform="rotate(180 45.619558623960685 0)" font-family="sans-serif">DESTI…</text></g><g class="relationship" transform="translate(42.50667344244254 -118.2692535899731) rotate(432.96264629626296)"><path class="outline" fill="#A5ABB6" stroke="none" d="M 25 0.5 L 73.93385153685327 0.5 L 73.93385153685327 -0.5 L 25 -0.5 Z M 108.37916403685327 0.5 L 157.31301557370654 0.5 L 157.31301557370654 3.5 L 164.31301557370654 0 L 157.31301557370654 -3.5 L 157.31301557370654 -0.5 L 108.37916403685327 -0.5 Z"/><text text-anchor="middle" pointer-events="none" font-size="8px" fill="#000000" x="91.15650778685327" y="3" font-family="sans-serif">ORIGIN</text></g><g class="relationship" transform="translate(42.50667344244254 -118.2692535899731) rotate(303.059649145586)"><path class="outline" fill="#A5ABB6" stroke="none" d="M 25 0.5 L 25.00707245202087 0.5 L 25.00707245202087 -0.5 L 25 -0.5 Z M 73.67894745202088 0.5 L 73.68601990404174 0.5 L 73.68601990404174 3.5 L 80.68601990404174 0 L 73.68601990404174 -3.5 L 73.68601990404174 -0.5 L 73.67894745202088 -0.5 Z"/><text text-anchor="middle" pointer-events="none" font-size="8px" fill="#000000" x="49.34300995202087" y="3" font-family="sans-serif">DESTINA…</text></g><g class="relationship" transform="translate(61.34580182062 -59.09272632956359) rotate(433.2661705279081)"><path class="outline" fill="#A5ABB6" stroke="none" d="M 25 0.5 L 42.88510651408157 0.5 L 42.88510651408157 -0.5 L 25 -0.5 Z M 77.33041901408157 0.5 L 95.21552552816314 0.5 L 95.21552552816314 3.5 L 102.21552552816314 0 L 95.21552552816314 -3.5 L 95.21552552816314 -0.5 L 77.33041901408157 -0.5 Z"/><text text-anchor="middle" pointer-events="none" font-size="8px" fill="#000000" x="60.10776276408157" y="3" font-family="sans-serif">ORIGIN</text></g><g class="relationship" transform="translate(61.34580182062 -59.09272632956359) rotate(284.71877614409385)"><path class="outline" fill="#A5ABB6" stroke="none" d="M 25 0.5 L 43.28893708395965 0.5 L 43.28893708395965 -0.5 L 25 -0.5 Z M 102.47643708395965 0.5 L 120.7653741679193 0.5 L 120.7653741679193 3.5 L 127.7653741679193 0 L 120.7653741679193 -3.5 L 120.7653741679193 -0.5 L 102.47643708395965 -0.5 Z"/><text text-anchor="middle" pointer-events="none" font-size="8px" fill="#000000" x="72.88268708395965" y="3" font-family="sans-serif">DESTINATION</text></g><g class="relationship" transform="translate(-17.42850240115987 178.5984659106546) rotate(314.88604972168565)"><path class="outline" fill="#A5ABB6" stroke="none" d="M 25 0.5 L 61.042337123522216 0.5 L 61.042337123522216 -0.5 L 25 -0.5 Z M 95.48764962352222 0.5 L 131.52998674704443 0.5 L 131.52998674704443 3.5 L 138.52998674704443 0 L 131.52998674704443 -3.5 L 131.52998674704443 -0.5 L 95.48764962352222 -0.5 Z"/><text text-anchor="middle" pointer-events="none" font-size="8px" fill="#000000" x="78.26499337352222" y="3" font-family="sans-serif">ORIGIN</text></g><g class="relationship" transform="translate(-17.42850240115987 178.5984659106546) rotate(494.99484428633207)"><path class="outline" fill="#A5ABB6" stroke="none" d="M 25 0.5 L 45.056408171594896 0.5 L 45.056408171594896 -0.5 L 25 -0.5 Z M 104.2439081715949 0.5 L 124.30031634318979 0.5 L 124.30031634318979 3.5 L 131.3003163431898 0 L 124.30031634318979 -3.5 L 124.30031634318979 -0.5 L 104.2439081715949 -0.5 Z"/><text text-anchor="middle" pointer-events="none" font-size="8px" fill="#000000" x="74.6501581715949" y="3" transform="rotate(180 74.6501581715949 0)" font-family="sans-serif">DESTINATION</text></g><g class="relationship" transform="translate(213.47472767463168 182.45238483565856) rotate(226.0269875389173)"><path class="outline" fill="#A5ABB6" stroke="none" d="M 25 0.5 L 62.452505416460525 0.5 L 62.452505416460525 -0.5 L 25 -0.5 Z M 96.89781791646053 0.5 L 134.35032333292105 0.5 L 134.35032333292105 3.5 L 141.35032333292105 0 L 134.35032333292105 -3.5 L 134.35032333292105 -0.5 L 96.89781791646053 -0.5 Z"/><text text-anchor="middle" pointer-events="none" font-size="8px" fill="#000000" x="79.67516166646053" y="3" transform="rotate(180 79.67516166646053 0)" font-family="sans-serif">ORIGIN</text></g><g class="relationship" transform="translate(213.47472767463168 182.45238483565856) rotate(367.5152680887261)"><path class="outline" fill="#A5ABB6" stroke="none" d="M 25 0.5 L 34.86581266062764 0.5 L 34.86581266062764 -0.5 L 25 -0.5 Z M 94.05331266062764 0.5 L 103.91912532125528 0.5 L 103.91912532125528 3.5 L 110.91912532125528 0 L 103.91912532125528 -3.5 L 103.91912532125528 -0.5 L 94.05331266062764 -0.5 Z"/><text text-anchor="middle" pointer-events="none" font-size="8px" fill="#000000" x="64.45956266062764" y="3" font-family="sans-serif">DESTINATION</text></g><g class="relationship" transform="translate(3.130268571732869 -73.32227060368997) rotate(415.1201353207522)"><path class="outline" fill="#A5ABB6" stroke="none" d="M 25 0.5 L 62.203747638827124 0.5 L 62.203747638827124 -0.5 L 25 -0.5 Z M 96.64906013882712 0.5 L 133.85280777765425 0.5 L 133.85280777765425 3.5 L 140.85280777765425 0 L 133.85280777765425 -3.5 L 133.85280777765425 -0.5 L 96.64906013882712 -0.5 Z"/><text text-anchor="middle" pointer-events="none" font-size="8px" fill="#000000" x="79.42640388882712" y="3" font-family="sans-serif">ORIGIN</text></g><g class="relationship" transform="translate(3.130268571732869 -73.32227060368997) rotate(306.0054524842252)"><path class="outline" fill="#A5ABB6" stroke="none" d="M 25 0.5 L 49.4335629790658 0.5 L 49.4335629790658 -0.5 L 25 -0.5 Z M 108.6210629790658 0.5 L 133.0546259581316 0.5 L 133.0546259581316 3.5 L 140.0546259581316 0 L 133.0546259581316 -3.5 L 133.0546259581316 -0.5 L 108.6210629790658 -0.5 Z"/><text text-anchor="middle" pointer-events="none" font-size="8px" fill="#000000" x="79.0273129790658" y="3" font-family="sans-serif">DESTINATION</text></g><g class="relationship" transform="translate(150.40980811717614 217.3032684424101) rotate(251.26107518123194)"><path class="outline" fill="#A5ABB6" stroke="none" d="M 25 0.5 L 60.88715052838343 0.5 L 60.88715052838343 -0.5 L 25 -0.5 Z M 95.33246302838343 0.5 L 131.21961355676686 0.5 L 131.21961355676686 3.5 L 138.21961355676686 0 L 131.21961355676686 -3.5 L 131.21961355676686 -0.5 L 95.33246302838343 -0.5 Z"/><text text-anchor="middle" pointer-events="none" font-size="8px" fill="#000000" x="78.10980677838343" y="3" transform="rotate(180 78.10980677838343 0)" font-family="sans-serif">ORIGIN</text></g><g class="relationship" transform="translate(150.40980811717614 217.3032684424101) rotate(430.3650093412009)"><path class="outline" fill="#A5ABB6" stroke="none" d="M 25 0.5 L 44.750627055713366 0.5 L 44.750627055713366 -0.5 L 25 -0.5 Z M 103.93812705571337 0.5 L 123.68875411142673 0.5 L 123.68875411142673 3.5 L 130.68875411142673 0 L 123.68875411142673 -3.5 L 123.68875411142673 -0.5 L 103.93812705571337 -0.5 Z"/><text text-anchor="middle" pointer-events="none" font-size="8px" fill="#000000" x="74.34437705571337" y="3" font-family="sans-serif">DESTINATION</text></g></g><g class="layer nodes"><g class="node" transform="translate(97.97445951598851,62.73556008554713)"><circle class="outline" cx="0" cy="0" r="25" fill="#4C8EDA" stroke="#2870c2" stroke-width="2px"/><text text-anchor="middle" pointer-events="none" font-family="sans-serif" dy="1.5625" font-size="25" fill="#FFFFFF"/><text text-anchor="middle" pointer-events="none" x="0" y="5" font-size="10px" fill="#FFFFFF" font-family="sans-serif"> LAX</text></g><g class="node" transform="translate(-189.0339037793811,62.24206047183436)"><circle class="outline" cx="0" cy="0" r="25" fill="#4C8EDA" stroke="#2870c2" stroke-width="2px"/><text text-anchor="middle" pointer-events="none" font-family="sans-serif" dy="1.5625" font-size="25" fill="#FFFFFF"/><text text-anchor="middle" pointer-events="none" x="0" y="5" font-size="10px" fill="#FFFFFF" font-family="sans-serif"> SMF</text></g><g class="node" transform="translate(348.22631365710214,200.2292997340307)"><circle class="outline" cx="0" cy="0" r="25" fill="#4C8EDA" stroke="#2870c2" stroke-width="2px"/><text text-anchor="middle" pointer-events="none" font-family="sans-serif" dy="1.5625" font-size="25" fill="#FFFFFF"/><text text-anchor="middle" pointer-events="none" x="0" y="5" font-size="10px" fill="#FFFFFF" font-family="sans-serif"> FAT</text></g><g class="node" transform="translate(387.89402971820937,-44.34478185763885)"><circle class="outline" cx="0" cy="0" r="25" fill="#4C8EDA" stroke="#2870c2" stroke-width="2px"/><text text-anchor="middle" pointer-events="none" font-family="sans-serif" dy="1.5625" font-size="25" fill="#FFFFFF"/><text text-anchor="middle" pointer-events="none" x="0" y="5" font-size="10px" fill="#FFFFFF" font-family="sans-serif"> LAS</text></g><g class="node" transform="translate(31.86245442875247,353.75026763010715)"><circle class="outline" cx="0" cy="0" r="25" fill="#4C8EDA" stroke="#2870c2" stroke-width="2px"/><text text-anchor="middle" pointer-events="none" font-family="sans-serif" dy="1.5625" font-size="25" fill="#FFFFFF"/><text text-anchor="middle" pointer-events="none" x="0" y="5" font-size="10px" fill="#FFFFFF" font-family="sans-serif"> TUS</text></g><g class="node" transform="translate(100.15965050583543,-206.84503492372934)"><circle class="outline" cx="0" cy="0" r="25" fill="#4C8EDA" stroke="#2870c2" stroke-width="2px"/><text text-anchor="middle" pointer-events="none" font-family="sans-serif" dy="1.5625" font-size="25" fill="#FFFFFF"/><text text-anchor="middle" pointer-events="none" x="0" y="5" font-size="10px" fill="#FFFFFF" font-family="sans-serif"> ABQ</text></g><g class="node" transform="translate(-127.93957039894524,289.12942419370785)"><circle class="outline" cx="0" cy="0" r="25" fill="#4C8EDA" stroke="#2870c2" stroke-width="2px"/><text text-anchor="middle" pointer-events="none" font-family="sans-serif" dy="1.5625" font-size="25" fill="#FFFFFF"/><text text-anchor="middle" pointer-events="none" x="0" y="5" font-size="10px" fill="#FFFFFF" font-family="sans-serif"> EWR</text></g><g class="node" transform="translate(202.7254056505035,363.9390976639861)"><circle class="outline" cx="0" cy="0" r="25" fill="#4C8EDA" stroke="#2870c2" stroke-width="2px"/><text text-anchor="middle" pointer-events="none" font-family="sans-serif" dy="1.5625" font-size="25" fill="#FFFFFF"/><text text-anchor="middle" pointer-events="none" x="0" y="5" font-size="10px" fill="#FFFFFF" font-family="sans-serif"> IAH</text></g><g class="node" transform="translate(-58.15066761114009,117.81308765242746)"><circle class="outline" cx="0" cy="0" r="25" fill="#ECB5C9" stroke="#da7298" stroke-width="2px"/><text text-anchor="middle" pointer-events="none" font-family="sans-serif" dy="1.5625" font-size="25" fill="#2A2C34"/><text text-anchor="middle" pointer-events="none" x="0" y="5" font-size="10px" fill="#2A2C34" font-family="sans-serif"> 11/4/2015</text></g><g class="node" transform="translate(208.66936210455242,122.65297014915018)"><circle class="outline" cx="0" cy="0" r="25" fill="#ECB5C9" stroke="#da7298" stroke-width="2px"/><text text-anchor="middle" pointer-events="none" font-family="sans-serif" dy="1.5625" font-size="25" fill="#2A2C34"/><text text-anchor="middle" pointer-events="none" x="0" y="5" font-size="10px" fill="#2A2C34" font-family="sans-serif"> 11/4/2015</text></g><g class="node" transform="translate(250.4817060664865,8.479416257126152)"><circle class="outline" cx="0" cy="0" r="25" fill="#ECB5C9" stroke="#da7298" stroke-width="2px"/><text text-anchor="middle" pointer-events="none" font-family="sans-serif" dy="1.5625" font-size="25" fill="#2A2C34"/><text text-anchor="middle" pointer-events="none" x="0" y="5" font-size="10px" fill="#2A2C34" font-family="sans-serif"> 11/29/20…</text></g><g class="node" transform="translate(-30.15440955144843,55.32103380340079)"><circle class="outline" cx="0" cy="0" r="25" fill="#ECB5C9" stroke="#da7298" stroke-width="2px"/><text text-anchor="middle" pointer-events="none" font-family="sans-serif" dy="1.5625" font-size="25" fill="#2A2C34"/><text text-anchor="middle" pointer-events="none" x="0" y="5" font-size="10px" fill="#2A2C34" font-family="sans-serif"> 11/2/2015</text></g><g class="node" transform="translate(90.56293073726641,226.99531976037792)"><circle class="outline" cx="0" cy="0" r="25" fill="#ECB5C9" stroke="#da7298" stroke-width="2px"/><text text-anchor="middle" pointer-events="none" font-family="sans-serif" dy="1.5625" font-size="25" fill="#2A2C34"/><text text-anchor="middle" pointer-events="none" x="0" y="5" font-size="10px" fill="#2A2C34" font-family="sans-serif"> 11/1/2015</text></g><g class="node" transform="translate(160.9781578803391,-116.43334826296298)"><circle class="outline" cx="0" cy="0" r="25" fill="#ECB5C9" stroke="#da7298" stroke-width="2px"/><text text-anchor="middle" pointer-events="none" font-family="sans-serif" dy="1.5625" font-size="25" fill="#2A2C34"/><text text-anchor="middle" pointer-events="none" x="0" y="5" font-size="10px" fill="#2A2C34" font-family="sans-serif"> 11/2/2015</text></g><g class="node" transform="translate(262.68578369652613,148.23096885471836)"><circle class="outline" cx="0" cy="0" r="25" fill="#ECB5C9" stroke="#da7298" stroke-width="2px"/><text text-anchor="middle" pointer-events="none" font-family="sans-serif" dy="1.5625" font-size="25" fill="#2A2C34"/><text text-anchor="middle" pointer-events="none" x="0" y="5" font-size="10px" fill="#2A2C34" font-family="sans-serif"> 11/3/2015</text></g><g class="node" transform="translate(263.93071503935397,88.33002679922173)"><circle class="outline" cx="0" cy="0" r="25" fill="#ECB5C9" stroke="#da7298" stroke-width="2px"/><text text-anchor="middle" pointer-events="none" font-family="sans-serif" dy="1.5625" font-size="25" fill="#2A2C34"/><text text-anchor="middle" pointer-events="none" x="0" y="5" font-size="10px" fill="#2A2C34" font-family="sans-serif"> 11/1/2015</text></g><g class="node" transform="translate(-88.87725949969946,66.41075311760196)"><circle class="outline" cx="0" cy="0" r="25" fill="#ECB5C9" stroke="#da7298" stroke-width="2px"/><text text-anchor="middle" pointer-events="none" font-family="sans-serif" dy="1.5625" font-size="25" fill="#2A2C34"/><text text-anchor="middle" pointer-events="none" x="0" y="5" font-size="10px" fill="#2A2C34" font-family="sans-serif"> 11/1/2015</text></g><g class="node" transform="translate(134.7502260982835,-58.93539889586801)"><circle class="outline" cx="0" cy="0" r="25" fill="#ECB5C9" stroke="#da7298" stroke-width="2px"/><text text-anchor="middle" pointer-events="none" font-family="sans-serif" dy="1.5625" font-size="25" fill="#2A2C34"/><text text-anchor="middle" pointer-events="none" x="0" y="5" font-size="10px" fill="#2A2C34" font-family="sans-serif"> 11/3/2015</text></g><g class="node" transform="translate(-67.1959636656436,8.138841053507305)"><circle class="outline" cx="0" cy="0" r="25" fill="#ECB5C9" stroke="#da7298" stroke-width="2px"/><text text-anchor="middle" pointer-events="none" font-family="sans-serif" dy="1.5625" font-size="25" fill="#2A2C34"/><text text-anchor="middle" pointer-events="none" x="0" y="5" font-size="10px" fill="#2A2C34" font-family="sans-serif"> 11/3/2015</text></g><g class="node" transform="translate(194.09942743004072,-66.66152522679448)"><circle class="outline" cx="0" cy="0" r="25" fill="#ECB5C9" stroke="#da7298" stroke-width="2px"/><text text-anchor="middle" pointer-events="none" font-family="sans-serif" dy="1.5625" font-size="25" fill="#2A2C34"/><text text-anchor="middle" pointer-events="none" x="0" y="5" font-size="10px" fill="#2A2C34" font-family="sans-serif"> 11/1/2015</text></g><g class="node" transform="translate(32.0545911827126,214.16532467268684)"><circle class="outline" cx="0" cy="0" r="25" fill="#ECB5C9" stroke="#da7298" stroke-width="2px"/><text text-anchor="middle" pointer-events="none" font-family="sans-serif" dy="1.5625" font-size="25" fill="#2A2C34"/><text text-anchor="middle" pointer-events="none" x="0" y="5" font-size="10px" fill="#2A2C34" font-family="sans-serif"> 11/2/2015</text></g><g class="node" transform="translate(101.41735085673733,-108.61396882202105)"><circle class="outline" cx="0" cy="0" r="25" fill="#ECB5C9" stroke="#da7298" stroke-width="2px"/><text text-anchor="middle" pointer-events="none" font-family="sans-serif" dy="1.5625" font-size="25" fill="#2A2C34"/><text text-anchor="middle" pointer-events="none" x="0" y="5" font-size="10px" fill="#2A2C34" font-family="sans-serif"> 11/1/2015</text></g><g class="node" transform="translate(42.50667344244254,-118.2692535899731)"><circle class="outline" cx="0" cy="0" r="25" fill="#ECB5C9" stroke="#da7298" stroke-width="2px"/><text text-anchor="middle" pointer-events="none" font-family="sans-serif" dy="1.5625" font-size="25" fill="#2A2C34"/><text text-anchor="middle" pointer-events="none" x="0" y="5" font-size="10px" fill="#2A2C34" font-family="sans-serif"> 11/2/2015</text></g><g class="node" transform="translate(61.34580182062,-59.09272632956359)"><circle class="outline" cx="0" cy="0" r="25" fill="#ECB5C9" stroke="#da7298" stroke-width="2px"/><text text-anchor="middle" pointer-events="none" font-family="sans-serif" dy="1.5625" font-size="25" fill="#2A2C34"/><text text-anchor="middle" pointer-events="none" x="0" y="5" font-size="10px" fill="#2A2C34" font-family="sans-serif"> 11/4/2015</text></g><g class="node" transform="translate(-17.42850240115987,178.5984659106546)"><circle class="outline" cx="0" cy="0" r="25" fill="#ECB5C9" stroke="#da7298" stroke-width="2px"/><text text-anchor="middle" pointer-events="none" font-family="sans-serif" dy="1.5625" font-size="25" fill="#2A2C34"/><text text-anchor="middle" pointer-events="none" x="0" y="5" font-size="10px" fill="#2A2C34" font-family="sans-serif"> 11/30/20…</text></g><g class="node" transform="translate(213.47472767463168,182.45238483565856)"><circle class="outline" cx="0" cy="0" r="25" fill="#ECB5C9" stroke="#da7298" stroke-width="2px"/><text text-anchor="middle" pointer-events="none" font-family="sans-serif" dy="1.5625" font-size="25" fill="#2A2C34"/><text text-anchor="middle" pointer-events="none" x="0" y="5" font-size="10px" fill="#2A2C34" font-family="sans-serif"> 11/2/2015</text></g><g class="node" transform="translate(3.130268571732869,-73.32227060368997)"><circle class="outline" cx="0" cy="0" r="25" fill="#ECB5C9" stroke="#da7298" stroke-width="2px"/><text text-anchor="middle" pointer-events="none" font-family="sans-serif" dy="1.5625" font-size="25" fill="#2A2C34"/><text text-anchor="middle" pointer-events="none" x="0" y="5" font-size="10px" fill="#2A2C34" font-family="sans-serif"> 11/3/2015</text></g><g class="node" transform="translate(150.40980811717614,217.3032684424101)"><circle class="outline" cx="0" cy="0" r="25" fill="#ECB5C9" stroke="#da7298" stroke-width="2px"/><text text-anchor="middle" pointer-events="none" font-family="sans-serif" dy="1.5625" font-size="25" fill="#2A2C34"/><text text-anchor="middle" pointer-events="none" x="0" y="5" font-size="10px" fill="#2A2C34" font-family="sans-serif"> 11/30/20…</text></g></g></svg>