<svg xmlns="http://www.w3.org/2000/svg" width="414.9295959472656" height="367.0191650390625" viewBox="-106.76251220703125 -105.43592834472656 414.9295959472656 367.0191650390625"><title>Neo4j Graph Visualization</title><desc>Created using Neo4j (http://www.neo4j.com/)</desc><g class="layer relationships"><g class="relationship" transform="translate(172.15920807741364 -76.43592513739077) rotate(403.19443715822985)"><path class="outline" fill="#A5ABB6" stroke="none" d="M 24.018736134675446,-6.953439040707552 L 24.277555179777966,-5.987513214418485 A 107.28965151924726 107.28965151924726 0 0 1 39.423969831907144,-8.898257785838808 L 39.306323904972615,-9.891313391470092 A 108.28965151924726 108.28965151924726 0 0 0 24.018736134675446,-6.953439040707552 Z M 61.37898301978384,-10.24040040625681 L 61.29279913652743,-9.244121159124347 A 107.28965151924726 107.28965151924726 0 0 1 76.52368458664276,-6.81380447610722 L 75.83925163608332,-3.892922496946047 L 83.45314802977875,-5.70360792132871 L 77.43626185405536,-10.70831378165545 L 76.75182890349592,-7.787431802494278 A 108.28965151924726 108.28965151924726 0 0 0 61.37898301978384,-10.24040040625681"/><text text-anchor="middle" pointer-events="none" font-size="8px" fill="#000000" x="50.3416415230984" y="-7.129841492453039" font-family="sans-serif">road</text></g><g class="relationship" transform="translate(250.7446931334304 -2.653599469170402) rotate(435.8676735029022)"><path class="outline" fill="#A5ABB6" stroke="none" d="M 21.40063509461097,-12.933012701892217 L 21.90063509461097,-12.06698729810778 A 69.17900286990616 69.17900286990616 0 0 1 31.99127674956941,-16.851965255203396 L 31.637139529261887,-17.78715872673368 A 70.17900286990616 70.17900286990616 0 0 0 21.40063509461097,-12.933012701892217 Z M 77.55437498549566,-19.099400526552685 L 77.25422483239389,-18.145508559088356 A 69.17900286990616 69.17900286990616 0 0 1 87.60166834550228,-13.944618676967572 L 86.25249313950322,-11.265117554833562 L 94.0787001648148,-11.243126716658782 L 89.40056862016768,-17.51728683981292 L 88.05139341416861,-14.837785717678909 A 70.17900286990616 70.17900286990616 0 0 0 77.55437498549566,-19.099400526552685"/><text text-anchor="middle" pointer-events="none" font-size="8px" fill="#000000" x="54.49963376657254" y="-18.806779372523565" font-family="sans-serif">twowheeler</text></g><g class="relationship" transform="translate(279.16709377309206 110.23112394025146) rotate(518.8838165310573)"><path class="outline" fill="#A5ABB6" stroke="none" d="M 21.40063509461097,12.933012701892217 L 21.90063509461097,12.06698729810778 A 66.79047970566359 66.79047970566359 0 0 0 30.871053812110205,16.389003752081784 L 30.50536065879001,17.319739223424065 A 67.79047970566359 67.79047970566359 0 0 1 21.40063509461097,12.933012701892217 Z M 76.3715588988684,18.65581991255604 L 76.0606644481589,17.705375468878223 A 66.79047970566359 66.79047970566359 0 0 0 85.26745916893537,13.912860582267387 L 83.92123807484053,11.231874053801777 L 91.74746458437093,11.218509117457021 L 87.06242062772849,17.4875092868882 L 85.71619953363364,14.80652275842259 A 67.79047970566359 67.79047970566359 0 0 1 76.3715588988684,18.65581991255604"/><text text-anchor="middle" pointer-events="none" font-size="8px" fill="#000000" x="53.33653684381154" y="24.4866831752027" transform="rotate(180 53.33653684381154 21.4866831752027)" font-family="sans-serif">twowheeler</text></g><g class="relationship" transform="translate(172.73894536362977 151.3328693999636) rotate(497.85202728756326)"><path class="outline" fill="#A5ABB6" stroke="none" d="M 25 0.5 L 47.371974917505085 0.5 L 47.371974917505085 -0.5 L 25 -0.5 Z M 66.70791241750509 0.5 L 89.07988733501017 0.5 L 89.07988733501017 3.5 L 96.07988733501017 0 L 89.07988733501017 -3.5 L 89.07988733501017 -0.5 L 66.70791241750509 -0.5 Z"/><text text-anchor="middle" pointer-events="none" font-size="8px" fill="#000000" x="57.039943667505085" y="3" transform="rotate(180 57.039943667505085 0)" font-family="sans-serif">trek</text></g><g class="relationship" transform="translate(279.16709377309206 110.23112394025146) rotate(518.8838165310573)"><path class="outline" fill="#A5ABB6" stroke="none" d="M 25 0.5 L 42.538650119125506 0.5 L 42.538650119125506 -0.5 L 25 -0.5 Z M 64.5503688691255 0.5 L 82.08901898825101 0.5 L 82.08901898825101 3.5 L 89.08901898825101 0 L 82.08901898825101 -3.5 L 82.08901898825101 -0.5 L 64.5503688691255 -0.5 Z"/><text text-anchor="middle" pointer-events="none" font-size="8px" fill="#000000" x="53.544509494125506" y="3" transform="rotate(180 53.544509494125506 0)" font-family="sans-serif">road</text></g><g class="relationship" transform="translate(279.16709377309206 110.23112394025146) rotate(518.8838165310573)"><path class="outline" fill="#A5ABB6" stroke="none" d="M 21.40063509461097,-12.933012701892217 L 21.90063509461097,-12.06698729810778 A 66.79047970566359 66.79047970566359 0 0 1 43.812038108688924,-20.020553176132395 L 43.640099879028625,-21.00566090891155 A 67.79047970566359 67.79047970566359 0 0 0 21.40063509461097,-12.933012701892217 Z M 63.0445324068339,-21.570911323787016 L 62.93022937353137,-20.577465393412425 A 66.79047970566359 66.79047970566359 0 0 1 85.26745916893537,-13.912860582267387 L 83.92123807484053,-11.231874053801777 L 91.74746458437093,-11.218509117457021 L 87.06242062772849,-17.4875092868882 L 85.71619953363364,-14.80652275842259 A 67.79047970566359 67.79047970566359 0 0 0 63.0445324068339,-21.570911323787016"/><text text-anchor="middle" pointer-events="none" font-size="8px" fill="#000000" x="53.33653684381153" y="-18.4866831752027" transform="rotate(180 53.33653684381153 -21.4866831752027)" font-family="sans-serif">trek</text></g><g class="relationship" transform="translate(250.7446931334304 -2.653599469170402) rotate(435.8676735029022)"><path class="outline" fill="#A5ABB6" stroke="none" d="M 25 0.5 L 43.69807871629911 0.5 L 43.69807871629911 -0.5 L 25 -0.5 Z M 65.70979746629911 0.5 L 84.40787618259822 0.5 L 84.40787618259822 3.5 L 91.40787618259822 0 L 84.40787618259822 -3.5 L 84.40787618259822 -0.5 L 65.70979746629911 -0.5 Z"/><text text-anchor="middle" pointer-events="none" font-size="8px" fill="#000000" x="54.70393809129911" y="3" font-family="sans-serif">road</text></g><g class="relationship" transform="translate(250.7446931334304 -2.653599469170402) rotate(435.8676735029022)"><path class="outline" fill="#A5ABB6" stroke="none" d="M 21.40063509461097,12.933012701892217 L 21.90063509461097,12.06698729810778 A 69.17900286990616 69.17900286990616 0 0 0 44.9689887824732,20.369097763951288 L 44.802447675068734,21.35513227630088 A 70.17900286990616 70.17900286990616 0 0 1 21.40063509461097,12.933012701892217 Z M 64.20678655015597,21.909677520951178 L 64.09682987216075,20.915741140208297 A 69.17900286990616 69.17900286990616 0 0 0 87.60166834550228,13.944618676967572 L 86.25249313950322,11.265117554833562 L 94.0787001648148,11.243126716658782 L 89.40056862016768,17.51728683981292 L 88.05139341416861,14.837785717678909 A 70.17900286990616 70.17900286990616 0 0 1 64.20678655015597,21.909677520951178"/><text text-anchor="middle" pointer-events="none" font-size="8px" fill="#000000" x="54.49963376657254" y="24.806779372523565" font-family="sans-serif">trek</text></g><g class="relationship" transform="translate(172.15920807741364 -76.43592513739077) rotate(403.19443715822985)"><path class="outline" fill="#A5ABB6" stroke="none" d="M 24.018736134675446,6.953439040707552 L 24.277555179777966,5.987513214418485 A 107.28965151924726 107.28965151924726 0 0 0 40.747345001773525,9.046714060984911 L 40.64203367702221,10.041153362741994 A 108.28965151924726 108.28965151924726 0 0 1 24.018736134675446,6.953439040707552 Z M 60.03920291044565,10.347926546153516 L 59.965391216872575,9.350654349663571 A 107.28965151924726 107.28965151924726 0 0 0 76.52368458664276,6.81380447610722 L 75.83925163608332,3.892922496946047 L 83.45314802977875,5.70360792132871 L 77.43626185405536,10.70831378165545 L 76.75182890349592,7.787431802494278 A 108.28965151924726 108.28965151924726 0 0 1 60.03920291044565,10.347926546153516"/><text text-anchor="middle" pointer-events="none" font-size="8px" fill="#000000" x="50.34164152309844" y="13.129841492453039" font-family="sans-serif">trek</text></g><g class="relationship" transform="translate(172.15920807741364 -76.43592513739077) rotate(467.52791134675374)"><path class="outline" fill="#A5ABB6" stroke="none" d="M 21.40063509461097,12.933012701892217 L 21.90063509461097,12.06698729810778 A 64.51272309258206 64.51272309258206 0 0 0 42.71042487226869,19.686442965164858 L 42.532993642893885,20.67057616694322 A 65.51272309258206 65.51272309258206 0 0 1 21.40063509461097,12.933012701892217 Z M 61.937362206018236,21.246410154465025 L 61.81860106775627,20.25348730145039 A 64.51272309258206 64.51272309258206 0 0 0 83.0435956127643,13.88143411453065 L 81.70029784510967,11.198981671818183 L 89.52653427370251,11.194148063788585 L 84.8346593029705,17.458037371480607 L 83.49136153531586,14.775584928768138 A 65.51272309258206 65.51272309258206 0 0 1 61.937362206018236,21.246410154465025"/><text text-anchor="middle" pointer-events="none" font-size="8px" fill="#000000" x="52.228561691403435" y="24.181446003771327" transform="rotate(180 52.228561691403435 21.181446003771327)" font-family="sans-serif">trek</text></g><g class="relationship" transform="translate(138.46417621423097 30.249816139314447) rotate(180.51434464620434)"><path class="outline" fill="#A5ABB6" stroke="none" d="M 24.018736134675446,-6.953439040707552 L 24.277555179777966,-5.987513214418485 A 140.09603651938355 140.09603651938355 0 0 1 35.584400080522535,-8.521084772098675 L 35.406288849728384,-9.505095132544625 A 141.09603651938355 141.09603651938355 0 0 0 24.018736134675446,-6.953439040707552 Z M 81.8200229933127,-10.146772873033939 L 81.66918285673654,-9.158214704185127 A 140.09603651938355 140.09603651938355 0 0 1 93.04174703389609,-6.938189820593316 L 92.3456958764097,-4.020054665025316 L 99.96673758980248,-5.8004263123864455 L 93.96981524387792,-10.829036694683985 L 93.27376408639154,-7.910901539115984 A 141.09603651938355 141.09603651938355 0 0 0 81.8200229933127,-10.146772873033939"/><text text-anchor="middle" pointer-events="none" font-size="8px" fill="#000000" x="58.59349927636589" y="-8.247735391235864" transform="rotate(180 58.59349927636589 -11.247735391235864)" font-family="sans-serif">twowheeler</text></g><g class="relationship" transform="translate(14.184653465636028 29.13412795324343) rotate(447.1044211871573)"><path class="outline" fill="#A5ABB6" stroke="none" d="M 24.018736134675446,-6.953439040707552 L 24.277555179777966,-5.987513214418485 A 111.02261559904198 111.02261559904198 0 0 1 28.36364784896583,-6.999756042273319 L 28.141632950902547,-7.974799315691456 A 112.02261559904198 112.02261559904198 0 0 0 24.018736134675446,-6.953439040707552 Z M 74.47233754680046,-8.695771704144462 L 74.28076895238641,-7.714292476837926 A 111.02261559904198 111.02261559904198 0 0 1 78.39637941872043,-6.829679944066577 L 77.71046357856885,-3.909145838765091 L 85.32527830444916,-5.715965334596477 L 79.31093387225586,-10.723725417801894 L 78.62501803210428,-7.803191312500407 A 112.02261559904198 112.02261559904198 0 0 0 74.47233754680046,-8.695771704144462"/><text text-anchor="middle" pointer-events="none" font-size="8px" fill="#000000" x="51.27708035130081" y="-7.257016489608617" font-family="sans-serif">twowheeler</text></g><g class="relationship" transform="translate(19.72437896601582 138.65717905032486) rotate(416.04602427478846)"><path class="outline" fill="#A5ABB6" stroke="none" d="M 24.018736134675446,6.953439040707552 L 24.277555179777966,5.987513214418485 A 118.14277071800697 118.14277071800697 0 0 0 30.121354517839944,7.395047289165845 L 29.911999348542487,8.372886955516336 A 119.14277071800697 119.14277071800697 0 0 1 24.018736134675446,6.953439040707552 Z M 76.26975009283754,9.072812410732084 L 76.0900111487035,8.089098066035632 A 118.14277071800697 118.14277071800697 0 0 0 81.97363997959268,6.85862878342929 L 81.2850201292539,3.9387310623233946 L 88.90150463722956,5.738498752823128 L 82.89179978004438,10.751825744903817 L 82.2031799297056,7.831928023797922 A 119.14277071800697 119.14277071800697 0 0 1 76.26975009283754,9.072812410732084"/><text text-anchor="middle" pointer-events="none" font-size="8px" fill="#000000" x="53.06404857642058" y="13.499609908382041" font-family="sans-serif">twowheeler</text></g><g class="relationship" transform="translate(19.72437896601582 138.65717905032486) rotate(416.04602427478846)"><path class="outline" fill="#A5ABB6" stroke="none" d="M 24.018736134675446,-6.953439040707552 L 24.277555179777966,-5.987513214418485 A 118.14277071800697 118.14277071800697 0 0 1 43.46203756169628,-9.4624988298431 L 43.365602404032025,-10.457838098819394 A 119.14277071800697 119.14277071800697 0 0 0 24.018736134675446,-6.953439040707552 Z M 62.759335121933525,-10.750651425242083 L 62.69299302839717,-9.752854488673705 A 118.14277071800697 118.14277071800697 0 0 1 81.97363997959268,-6.85862878342929 L 81.2850201292539,-3.9387310623233946 L 88.90150463722956,-5.738498752823128 L 82.89179978004438,-10.751825744903817 L 82.2031799297056,-7.831928023797922 A 119.14277071800697 119.14277071800697 0 0 0 62.759335121933525,-10.750651425242083"/><text text-anchor="middle" pointer-events="none" font-size="8px" fill="#000000" x="53.06404857642057" y="-7.499609908382041" font-family="sans-serif">trek</text></g><g class="relationship" transform="translate(14.184653465636028 29.13412795324343) rotate(447.1044211871573)"><path class="outline" fill="#A5ABB6" stroke="none" d="M 24.018736134675446,6.953439040707552 L 24.277555179777966,5.987513214418485 A 111.02261559904198 111.02261559904198 0 0 0 41.67993823121666,9.1906388873185 L 41.57786547566552,10.185415823407297 A 112.02261559904198 112.02261559904198 0 0 1 24.018736134675446,6.953439040707552 Z M 60.97382675154782,10.487244872833259 L 60.90275624337349,9.489773578575708 A 111.02261559904198 111.02261559904198 0 0 0 78.39637941872043,6.829679944066577 L 77.71046357856885,3.909145838765091 L 85.32527830444916,5.715965334596477 L 79.31093387225586,10.723725417801894 L 78.62501803210428,7.803191312500407 A 112.02261559904198 112.02261559904198 0 0 1 60.97382675154782,10.487244872833259"/><text text-anchor="middle" pointer-events="none" font-size="8px" fill="#000000" x="51.27708035130081" y="13.257016489608617" font-family="sans-serif">trek</text></g><g class="relationship" transform="translate(138.46417621423097 30.249816139314447) rotate(180.51434464620434)"><path class="outline" fill="#A5ABB6" stroke="none" d="M 24.018736134675446,6.953439040707552 L 24.277555179777966,5.987513214418485 A 140.09603651938355 140.09603651938355 0 0 0 48.979911593886314,10.283654224588815 L 48.89741699755355,11.280245736481163 A 141.09603651938355 141.09603651938355 0 0 1 24.018736134675446,6.953439040707552 Z M 68.28497698580492,11.548282039019881 L 68.23006474586848,10.549790854329132 A 140.09603651938355 140.09603651938355 0 0 0 93.04174703389609,6.938189820593316 L 92.3456958764097,4.020054665025316 L 99.96673758980248,5.8004263123864455 L 93.96981524387792,10.829036694683985 L 93.27376408639154,7.910901539115984 A 141.09603651938355 141.09603651938355 0 0 1 68.28497698580492,11.548282039019881"/><text text-anchor="middle" pointer-events="none" font-size="8px" fill="#000000" x="58.59349927636592" y="14.247735391235864" transform="rotate(180 58.59349927636592 11.247735391235864)" font-family="sans-serif">trek</text></g><g class="relationship" transform="translate(138.46417621423097 30.249816139314447) rotate(434.1948660138472)"><path class="outline" fill="#A5ABB6" stroke="none" d="M 25 0.5 L 49.75234908765436 0.5 L 49.75234908765436 -0.5 L 25 -0.5 Z M 69.08828658765435 0.5 L 93.84063567530872 0.5 L 93.84063567530872 3.5 L 100.84063567530872 0 L 93.84063567530872 -3.5 L 93.84063567530872 -0.5 L 69.08828658765435 -0.5 Z"/><text text-anchor="middle" pointer-events="none" font-size="8px" fill="#000000" x="59.42031783765436" y="3" font-family="sans-serif">trek</text></g><g class="relationship" transform="translate(172.15920807741364 -76.43592513739077) rotate(467.52791134675374)"><path class="outline" fill="#A5ABB6" stroke="none" d="M 25 0.5 L 41.43429293981985 0.5 L 41.43429293981985 -0.5 L 25 -0.5 Z M 63.44601168981985 0.5 L 79.8803046296397 0.5 L 79.8803046296397 3.5 L 86.8803046296397 0 L 79.8803046296397 -3.5 L 79.8803046296397 -0.5 L 63.44601168981985 -0.5 Z"/><text text-anchor="middle" pointer-events="none" font-size="8px" fill="#000000" x="52.44015231481985" y="3" transform="rotate(180 52.44015231481985 0)" font-family="sans-serif">road</text></g><g class="relationship" transform="translate(172.15920807741364 -76.43592513739077) rotate(467.52791134675374)"><path class="outline" fill="#A5ABB6" stroke="none" d="M 21.40063509461097,-12.933012701892217 L 21.90063509461097,-12.06698729810778 A 64.51272309258206 64.51272309258206 0 0 1 22.979506261516224,-12.676136297050569 L 22.496229647465334,-13.551604008797561 A 65.51272309258206 65.51272309258206 0 0 0 21.40063509461097,-12.933012701892217 Z M 82.36101323369266,-15.32812030884854 L 81.93050118562938,-14.425535478224653 A 64.51272309258206 64.51272309258206 0 0 1 83.0435956127643,-13.88143411453065 L 81.70029784510967,-11.198981671818183 L 89.52653427370251,-11.194148063788585 L 84.8346593029705,-17.458037371480607 L 83.49136153531586,-14.775584928768138 A 65.51272309258206 65.51272309258206 0 0 0 82.36101323369266,-15.32812030884854"/><text text-anchor="middle" pointer-events="none" font-size="8px" fill="#000000" x="52.22856169140342" y="-18.181446003771327" transform="rotate(180 52.22856169140342 -21.181446003771327)" font-family="sans-serif">PublicTransport</text></g><g class="relationship" transform="translate(138.46417621423097 30.249816139314447) rotate(343.6669604545092)"><path class="outline" fill="#A5ABB6" stroke="none" d="M 25 0.5 L 45.33320482444061 0.5 L 45.33320482444061 -0.5 L 25 -0.5 Z M 64.6691423244406 0.5 L 85.00234714888121 0.5 L 85.00234714888121 3.5 L 92.00234714888121 0 L 85.00234714888121 -3.5 L 85.00234714888121 -0.5 L 64.6691423244406 -0.5 Z"/><text text-anchor="middle" pointer-events="none" font-size="8px" fill="#000000" x="55.00117357444061" y="3" font-family="sans-serif">trek</text></g><g class="relationship" transform="translate(14.184653465636028 29.13412795324343) rotate(501.0953429154818)"><path class="outline" fill="#A5ABB6" stroke="none" d="M 24.018736134675446,-6.953439040707552 L 24.277555179777966,-5.987513214418485 A 127.93264016629254 127.93264016629254 0 0 1 32.550391137544096,-7.912302992927778 L 32.356237653529135,-8.89327415695088 A 128.93264016629254 128.93264016629254 0 0 0 24.018736134675446,-6.953439040707552 Z M 78.74312129198861,-9.566049822014648 L 78.57749866672177,-8.579860618058461 A 127.93264016629254 127.93264016629254 0 0 1 86.90267583843385,-6.895801374692595 L 86.21058388625475,-3.9767246833860894 L 93.82920344351221,-5.767432934825793 L 87.82546510800599,-10.787903629767934 L 87.13337315582689,-7.868826938461429 A 128.93264016629254 128.93264016629254 0 0 0 78.74312129198861,-9.566049822014648"/><text text-anchor="middle" pointer-events="none" font-size="8px" fill="#000000" x="55.526422348242114" y="-7.833206208968761" transform="rotate(180 55.526422348242114 -10.833206208968761)" font-family="sans-serif">twowheeler</text></g><g class="relationship" transform="translate(-77.76251207047494 103.33847799413738) rotate(379.9150363650679)"><path class="outline" fill="#A5ABB6" stroke="none" d="M 21.40063509461097,12.933012701892217 L 21.90063509461097,12.06698729810778 A 56.0381631128999 56.0381631128999 0 0 0 25.90920151958894,14.170207671956575 L 25.480734314425593,15.07376500500164 A 57.0381631128999 57.0381631128999 0 0 1 21.40063509461097,12.933012701892217 Z M 71.02525673530558,16.52621373395003 L 70.65523184438352,15.59719189346503 A 56.0381631128999 56.0381631128999 0 0 0 74.78966320835565,13.753657781755383 L 73.45825197844849,11.065285758229416 L 81.28443313490077,11.095093582559663 L 76.5648781815652,17.338153813123338 L 75.23346695165804,14.64978178959737 A 57.0381631128999 57.0381631128999 0 0 1 71.02525673530558,16.52621373395003"/><text text-anchor="middle" pointer-events="none" font-size="8px" fill="#000000" x="48.11758870225487" y="23.045949275268057" font-family="sans-serif">twowheeler</text></g><g class="relationship" transform="translate(-77.76251207047494 103.33847799413738) rotate(379.9150363650679)"><path class="outline" fill="#A5ABB6" stroke="none" d="M 25 0.5 L 37.33790729047522 0.5 L 37.33790729047522 -0.5 L 25 -0.5 Z M 59.34962604047522 0.5 L 71.68753333095044 0.5 L 71.68753333095044 3.5 L 78.68753333095044 0 L 71.68753333095044 -3.5 L 71.68753333095044 -0.5 L 59.34962604047522 -0.5 Z"/><text text-anchor="middle" pointer-events="none" font-size="8px" fill="#000000" x="48.34376666547522" y="3" font-family="sans-serif">road</text></g><g class="relationship" transform="translate(-77.76251207047494 103.33847799413738) rotate(379.9150363650679)"><path class="outline" fill="#A5ABB6" stroke="none" d="M 21.40063509461097,-12.933012701892217 L 21.90063509461097,-12.06698729810778 A 56.0381631128999 56.0381631128999 0 0 1 38.62858459127317,-18.425366351594967 L 38.42709454533716,-19.404856913769358 A 57.0381631128999 57.0381631128999 0 0 0 21.40063509461097,-12.933012701892217 Z M 57.829240322334876,-20.023605787942472 L 57.69056959313173,-19.033267245391357 A 56.0381631128999 56.0381631128999 0 0 1 74.78966320835565,-13.753657781755383 L 73.45825197844849,-11.065285758229416 L 81.28443313490077,-11.095093582559663 L 76.5648781815652,-17.338153813123338 L 75.23346695165804,-14.64978178959737 A 57.0381631128999 57.0381631128999 0 0 0 57.829240322334876,-20.023605787942472"/><text text-anchor="middle" pointer-events="none" font-size="8px" fill="#000000" x="48.11758870225488" y="-17.045949275268057" font-family="sans-serif">trek</text></g><g class="relationship" transform="translate(14.184653465636028 29.13412795324343) rotate(501.0953429154818)"><path class="outline" fill="#A5ABB6" stroke="none" d="M 24.018736134675446,6.953439040707552 L 24.277555179777966,5.987513214418485 A 127.93264016629254 127.93264016629254 0 0 0 45.91870131220365,9.831471216590913 L 45.829042741740714,10.82744377682667 A 128.93264016629254 128.93264016629254 0 0 1 24.018736134675446,6.953439040707552 Z M 65.21989016998334,11.108680394840576 L 65.15915356197763,10.110526566792032 A 127.93264016629254 127.93264016629254 0 0 0 86.90267583843385,6.895801374692595 L 86.21058388625475,3.9767246833860894 L 93.82920344351221,5.767432934825793 L 87.82546510800599,10.787903629767934 L 87.13337315582689,7.868826938461429 A 128.93264016629254 128.93264016629254 0 0 1 65.21989016998334,11.108680394840576"/><text text-anchor="middle" pointer-events="none" font-size="8px" fill="#000000" x="55.526422348242136" y="13.833206208968761" transform="rotate(180 55.526422348242136 10.833206208968761)" font-family="sans-serif">trek</text></g><g class="relationship" transform="translate(-77.76251207047494 103.33847799413738) rotate(430.7248689703389)"><path class="outline" fill="#A5ABB6" stroke="none" d="M 25 0.5 L 48.46317364597794 0.5 L 48.46317364597794 -0.5 L 25 -0.5 Z M 67.79911114597795 0.5 L 91.26228479195588 0.5 L 91.26228479195588 3.5 L 98.26228479195588 0 L 91.26228479195588 -3.5 L 91.26228479195588 -0.5 L 67.79911114597795 -0.5 Z"/><text text-anchor="middle" pointer-events="none" font-size="8px" fill="#000000" x="58.13114239597794" y="3" font-family="sans-serif">trek</text></g><g class="relationship" transform="translate(-37.0730514040521 219.691211708515) rotate(366.1298597575699)"><path class="outline" fill="#A5ABB6" stroke="none" d="M 25 0.5 L 47.19799969136414 0.5 L 47.19799969136414 -0.5 L 25 -0.5 Z M 66.53393719136415 0.5 L 88.73193688272828 0.5 L 88.73193688272828 3.5 L 95.73193688272828 0 L 88.73193688272828 -3.5 L 88.73193688272828 -0.5 L 66.53393719136415 -0.5 Z"/><text text-anchor="middle" pointer-events="none" font-size="8px" fill="#000000" x="56.86596844136414" y="3" font-family="sans-serif">trek</text></g></g><g class="layer nodes"><g class="node" transform="translate(172.15920807741364,-76.43592513739077)"><circle class="outline" cx="0" cy="0" r="25" fill="#F79767" stroke="#f36924" stroke-width="2px"/><text text-anchor="middle" pointer-events="none" font-family="sans-serif" dy="1.5625" font-size="25" fill="#FFFFFF"/><text text-anchor="middle" pointer-events="none" x="0" y="5" font-size="10px" fill="#FFFFFF" font-family="sans-serif"> Darjeeling</text></g><g class="node" transform="translate(82.96859211426332,232.5832404424562)"><circle class="outline" cx="0" cy="0" r="25" fill="#F16667" stroke="#eb2728" stroke-width="2px"/><text text-anchor="middle" pointer-events="none" font-family="sans-serif" dy="1.5625" font-size="25" fill="#FFFFFF"/><text text-anchor="middle" pointer-events="none" x="0" y="5" font-size="10px" fill="#FFFFFF" font-family="sans-serif"> Sandak…</text></g><g class="node" transform="translate(250.7446931334304,-2.653599469170402)"><circle class="outline" cx="0" cy="0" r="25" fill="#57C7E3" stroke="#23b3d7" stroke-width="2px"/><text text-anchor="middle" pointer-events="none" font-family="sans-serif" dy="1.5625" font-size="25" fill="#2A2C34"/><text text-anchor="middle" pointer-events="none" x="0" y="5" font-size="10px" fill="#2A2C34" font-family="sans-serif"> Tumbling</text></g><g class="node" transform="translate(279.16709377309206,110.23112394025146)"><circle class="outline" cx="0" cy="0" r="25" fill="#57C7E3" stroke="#23b3d7" stroke-width="2px"/><text text-anchor="middle" pointer-events="none" font-family="sans-serif" dy="1.5625" font-size="25" fill="#2A2C34"/><text text-anchor="middle" pointer-events="none" x="0" y="5" font-size="10px" fill="#2A2C34" font-family="sans-serif"> Gairibus</text></g><g class="node" transform="translate(172.73894536362977,151.3328693999636)"><circle class="outline" cx="0" cy="0" r="25" fill="#57C7E3" stroke="#23b3d7" stroke-width="2px"/><text text-anchor="middle" pointer-events="none" font-family="sans-serif" dy="1.5625" font-size="25" fill="#2A2C34"/><text text-anchor="middle" pointer-events="none" x="0" y="5" font-size="10px" fill="#2A2C34" font-family="sans-serif"> BhikeBh…</text></g><g class="node" transform="translate(138.46417621423097,30.249816139314447)"><circle class="outline" cx="0" cy="0" r="25" fill="#F79767" stroke="#f36924" stroke-width="2px"/><text text-anchor="middle" pointer-events="none" font-family="sans-serif" dy="1.5625" font-size="25" fill="#FFFFFF"/><text text-anchor="middle" pointer-events="none" x="0" y="5" font-size="10px" fill="#FFFFFF" font-family="sans-serif"> Rimbik</text></g><g class="node" transform="translate(14.184653465636028,29.13412795324343)"><circle class="outline" cx="0" cy="0" r="25" fill="#57C7E3" stroke="#23b3d7" stroke-width="2px"/><text text-anchor="middle" pointer-events="none" font-family="sans-serif" dy="1.5625" font-size="25" fill="#2A2C34"/><text text-anchor="middle" pointer-events="none" x="0" y="5" font-size="10px" fill="#2A2C34" font-family="sans-serif"> Sirikhola</text></g><g class="node" transform="translate(19.72437896601582,138.65717905032486)"><circle class="outline" cx="0" cy="0" r="25" fill="#57C7E3" stroke="#23b3d7" stroke-width="2px"/><text text-anchor="middle" pointer-events="none" font-family="sans-serif" dy="1.5625" font-size="25" fill="#2A2C34"/><text text-anchor="middle" pointer-events="none" x="0" y="5" font-size="10px" fill="#2A2C34" font-family="sans-serif"> Gurdum</text></g><g class="node" transform="translate(-77.76251207047494,103.33847799413738)"><circle class="outline" cx="0" cy="0" r="25" fill="#57C7E3" stroke="#23b3d7" stroke-width="2px"/><text text-anchor="middle" pointer-events="none" font-family="sans-serif" dy="1.5625" font-size="25" fill="#2A2C34"/><text text-anchor="middle" pointer-events="none" x="0" y="5" font-size="10px" fill="#2A2C34" font-family="sans-serif"> Rammam</text></g><g class="node" transform="translate(-37.0730514040521,219.691211708515)"><circle class="outline" cx="0" cy="0" r="25" fill="#F16667" stroke="#eb2728" stroke-width="2px"/><text text-anchor="middle" pointer-events="none" font-family="sans-serif" dy="1.5625" font-size="25" fill="#FFFFFF"/><text text-anchor="middle" pointer-events="none" x="0" y="5" font-size="10px" fill="#FFFFFF" font-family="sans-serif"> Sabargr…</text></g></g></svg>