<svg xmlns="http://www.w3.org/2000/svg" width="257.4900207519531" height="257.6233825683594" viewBox="-18.34476089477539 -22.660945892333984 257.4900207519531 257.6233825683594"><title>Neo4j Graph Visualization</title><desc>Created using Neo4j (http://www.neo4j.com/)</desc><g class="layer relationships"><g class="relationship" transform="translate(112.70081039109915 117.47016170839807) rotate(413.88704330513)"><path class="outline" fill="#A5ABB6" stroke="none" d="M 25 0.5 L 28.48854476743626 0.5 L 28.48854476743626 -0.5 L 25 -0.5 Z M 74.05104476743625 0.5 L 77.53958953487252 0.5 L 77.53958953487252 3.5 L 84.53958953487252 0 L 77.53958953487252 -3.5 L 77.53958953487252 -0.5 L 74.05104476743625 -0.5 Z"/><text text-anchor="middle" pointer-events="none" font-size="8px" fill="#000000" x="51.26979476743626" y="3" font-family="sans-serif">ACTED_IN</text></g><g class="relationship" transform="translate(112.70081039109915 117.47016170839807) rotate(330.5375547230194)"><path class="outline" fill="#A5ABB6" stroke="none" d="M 25 0.5 L 29.67769348281727 0.5 L 29.67769348281727 -0.5 L 25 -0.5 Z M 75.24019348281726 0.5 L 79.91788696563454 0.5 L 79.91788696563454 3.5 L 86.91788696563454 0 L 79.91788696563454 -3.5 L 79.91788696563454 -0.5 L 75.24019348281726 -0.5 Z"/><text text-anchor="middle" pointer-events="none" font-size="8px" fill="#000000" x="52.45894348281727" y="3" font-family="sans-serif">ACTED_IN</text></g><g class="relationship" transform="translate(112.70081039109915 117.47016170839807) rotate(263.7746376397358)"><path class="outline" fill="#A5ABB6" stroke="none" d="M 25 0.5 L 29.613913838571463 0.5 L 29.613913838571463 -0.5 L 25 -0.5 Z M 75.17641383857146 0.5 L 79.79032767714293 0.5 L 79.79032767714293 3.5 L 86.79032767714293 0 L 79.79032767714293 -3.5 L 79.79032767714293 -0.5 L 75.17641383857146 -0.5 Z"/><text text-anchor="middle" pointer-events="none" font-size="8px" fill="#000000" x="52.39516383857146" y="3" transform="rotate(180 52.39516383857146 0)" font-family="sans-serif">ACTED_IN</text></g><g class="relationship" transform="translate(112.70081039109915 117.47016170839807) rotate(204.08642382813548)"><path class="outline" fill="#A5ABB6" stroke="none" d="M 25 0.5 L 29.607739048295585 0.5 L 29.607739048295585 -0.5 L 25 -0.5 Z M 75.17023904829558 0.5 L 79.77797809659117 0.5 L 79.77797809659117 3.5 L 86.77797809659117 0 L 79.77797809659117 -3.5 L 79.77797809659117 -0.5 L 75.17023904829558 -0.5 Z"/><text text-anchor="middle" pointer-events="none" font-size="8px" fill="#000000" x="52.388989048295585" y="3" transform="rotate(180 52.388989048295585 0)" font-family="sans-serif">ACTED_IN</text></g><g class="relationship" transform="translate(112.70081039109915 117.47016170839807) rotate(497.2904104151934)"><path class="outline" fill="#A5ABB6" stroke="none" d="M 25 0.5 L 29.664627469350123 0.5 L 29.664627469350123 -0.5 L 25 -0.5 Z M 75.22712746935012 0.5 L 79.89175493870025 0.5 L 79.89175493870025 3.5 L 86.89175493870025 0 L 79.89175493870025 -3.5 L 79.89175493870025 -0.5 L 75.22712746935012 -0.5 Z"/><text text-anchor="middle" pointer-events="none" font-size="8px" fill="#000000" x="52.44587746935012" y="3" transform="rotate(180 52.44587746935012 0)" font-family="sans-serif">ACTED_IN</text></g></g><g class="layer nodes"><g class="node" transform="translate(112.70081039109915,117.47016170839807)"><circle class="outline" cx="0" cy="0" r="25" fill="#F79767" stroke="#f36924" stroke-width="2px"/><text text-anchor="middle" pointer-events="none" font-family="sans-serif" dy="1.5625" font-size="25" fill="#FFFFFF"/><text text-anchor="middle" pointer-events="none" font-family="sans-serif" dy="1.5625" font-size="25" fill="#FFFFFF"/><text text-anchor="middle" pointer-events="none" x="0" y="0" font-size="10px" fill="#FFFFFF" font-family="sans-serif"> Hugo</text><text text-anchor="middle" pointer-events="none" x="0" y="10" font-size="10px" fill="#FFFFFF" font-family="sans-serif"> Weaving</text></g><g class="node" transform="translate(177.26115055973142,205.96244472097968)"><circle class="outline" cx="0" cy="0" r="25" fill="#57C7E3" stroke="#23b3d7" stroke-width="2px"/><text text-anchor="middle" pointer-events="none" font-family="sans-serif" dy="1.5625" font-size="25" fill="#2A2C34"/><text text-anchor="middle" pointer-events="none" font-family="sans-serif" dy="1.5625" font-size="25" fill="#2A2C34"/><text text-anchor="middle" pointer-events="none" x="0" y="0" font-size="10px" fill="#2A2C34" font-family="sans-serif"> Cloud</text><text text-anchor="middle" pointer-events="none" x="0" y="10" font-size="10px" fill="#2A2C34" font-family="sans-serif"> Atlas</text></g><g class="node" transform="translate(210.14528256668933,62.42301586709963)"><circle class="outline" cx="0" cy="0" r="25" fill="#57C7E3" stroke="#23b3d7" stroke-width="2px"/><text text-anchor="middle" pointer-events="none" font-family="sans-serif" dy="1.5625" font-size="25" fill="#2A2C34"/><text text-anchor="middle" pointer-events="none" font-family="sans-serif" dy="1.5625" font-size="25" fill="#2A2C34"/><text text-anchor="middle" pointer-events="none" x="0" y="0" font-size="10px" fill="#2A2C34" font-family="sans-serif"> V for</text><text text-anchor="middle" pointer-events="none" x="0" y="10" font-size="10px" fill="#2A2C34" font-family="sans-serif"> Vendetta</text></g><g class="node" transform="translate(100.5783329135425,6.3390548932082815)"><circle class="outline" cx="0" cy="0" r="25" fill="#57C7E3" stroke="#23b3d7" stroke-width="2px"/><text text-anchor="middle" pointer-events="none" font-family="sans-serif" dy="1.5625" font-size="25" fill="#2A2C34"/><text text-anchor="middle" pointer-events="none" font-family="sans-serif" dy="1.5625" font-size="25" fill="#2A2C34"/><text text-anchor="middle" pointer-events="none" font-family="sans-serif" dy="1.5625" font-size="25" fill="#2A2C34"/><text text-anchor="middle" pointer-events="none" x="0" y="-5" font-size="10px" fill="#2A2C34" font-family="sans-serif"> The</text><text text-anchor="middle" pointer-events="none" x="0" y="5" font-size="10px" fill="#2A2C34" font-family="sans-serif"> Matrix</text><text text-anchor="middle" pointer-events="none" x="0" y="15" font-size="10px" fill="#2A2C34" font-family="sans-serif"> Revol…</text></g><g class="node" transform="translate(10.655239681639829,71.85198675649156)"><circle class="outline" cx="0" cy="0" r="25" fill="#57C7E3" stroke="#23b3d7" stroke-width="2px"/><text text-anchor="middle" pointer-events="none" font-family="sans-serif" dy="1.5625" font-size="25" fill="#2A2C34"/><text text-anchor="middle" pointer-events="none" font-family="sans-serif" dy="1.5625" font-size="25" fill="#2A2C34"/><text text-anchor="middle" pointer-events="none" font-family="sans-serif" dy="1.5625" font-size="25" fill="#2A2C34"/><text text-anchor="middle" pointer-events="none" x="0" y="-5" font-size="10px" fill="#2A2C34" font-family="sans-serif"> The</text><text text-anchor="middle" pointer-events="none" x="0" y="5" font-size="10px" fill="#2A2C34" font-family="sans-serif"> Matrix</text><text text-anchor="middle" pointer-events="none" x="0" y="15" font-size="10px" fill="#2A2C34" font-family="sans-serif"> Reloa…</text></g><g class="node" transform="translate(30.482627863606186,193.36439920465335)"><circle class="outline" cx="0" cy="0" r="25" fill="#57C7E3" stroke="#23b3d7" stroke-width="2px"/><text text-anchor="middle" pointer-events="none" font-family="sans-serif" dy="1.5625" font-size="25" fill="#2A2C34"/><text text-anchor="middle" pointer-events="none" font-family="sans-serif" dy="1.5625" font-size="25" fill="#2A2C34"/><text text-anchor="middle" pointer-events="none" x="0" y="0" font-size="10px" fill="#2A2C34" font-family="sans-serif"> The</text><text text-anchor="middle" pointer-events="none" x="0" y="10" font-size="10px" fill="#2A2C34" font-family="sans-serif"> Matrix</text></g></g></svg>